<svg width="40" height="50" viewBox="0 0 40 50" fill="none" xmlns="http://www.w3.org/2000/svg">
<g clip-path="url(#clip0_12_95)">
<path d="M20 1C25.0312 1 29.448 2.75352 33.291 6.29785C37.0763 9.78903 39 14.4855 39 20.5C39 24.3994 37.4486 28.7364 34.2031 33.5332C31.0658 38.1701 26.3414 43.2181 20 48.6797C13.6586 43.2181 8.93418 38.1701 5.79688 33.5332C2.5514 28.7364 1 24.3994 1 20.5C1 14.4855 2.92375 9.78903 6.70898 6.29785C10.552 2.75352 14.9688 1 20 1Z" fill="url(#paint0_linear_12_95)" stroke="black" stroke-width="2"/>
<path d="M20 5C28.2843 5 35 11.7157 35 20C35 28.2843 28.2843 35 20 35C11.7157 35 5 28.2843 5 20C5 11.7157 11.7157 5 20 5Z" stroke="black" stroke-width="2"/>
<path d="M16.7123 20.5127C17.8651 18.795 20.5429 18.1249 22.6563 19.3239C24.2174 20.2205 23.9535 21.6253 24.5899 22.7705C25.4907 24.4016 28.3723 25.3096 28.0001 28.4424C27.7717 30.3756 26.415 31.51 23.9298 30.7757C21.7323 30.1275 20.387 28.5064 18.4298 29.4892C17.4451 29.9862 16.6762 30.8292 14.6107 30.7536C10.7922 30.6022 10.1079 26.3459 14.491 23.764C15.9197 22.9214 16.028 21.5281 16.7123 20.5127Z" fill="black"/>
<path d="M27.6759 16.5687C28.0244 15.5644 29.7902 15.8127 30.6667 16.8929C32.1317 18.6862 32.7193 21.2684 30.7019 22.4567L30.7136 22.4463C29.5367 23.1372 27.6276 22.6508 26.9792 21.7327C26.211 20.6417 26.7153 19.3232 27.6759 16.5687Z" fill="black"/>
<path d="M10.3243 14.5817C11.4291 14.2039 12.9658 15.9537 13.1459 18.2978C13.434 22.1 10.2043 22.2622 9.19538 21.5062C8.11482 20.6853 7.93435 19.3352 8.0183 18.5465C8.17441 16.8612 8.88327 15.0678 10.3243 14.5817Z" fill="black"/>
<path d="M14.935 10.984C15.7755 9.84979 17.373 9.88157 17.8295 10.346V10.3356C18.9462 11.4591 19.63 13.588 19.4259 15.122C19.2337 16.5799 18.7418 17.0445 17.7214 17.2822C15.0075 17.898 14.6465 17.0439 14.2982 15.3694C13.8902 13.3821 14.2626 11.9022 14.935 10.984Z" fill="black"/>
<path d="M21.3959 11.7288C21.7805 9.51474 24.3381 10.1526 25.1186 11.2653C26.7996 13.6744 26.8117 17.6602 23.3894 17.3577C20.4233 17.0984 20.7715 15.3694 21.3959 11.7288Z" fill="black"/>
<path d="M28.9844 12.9931C29.5486 12.9068 30.029 13.7711 30.1251 14.0843C30.2688 14.5592 29.9327 14.9693 29.2488 14.9801C28.0726 15.0017 28.4684 13.08 28.9844 12.9931Z" fill="black"/>
<path d="M11.0561 11.5778C11.6204 11.675 12.0531 13.7273 10.7683 13.695C10.0238 13.6842 9.66307 13.2525 9.81908 12.734C9.91513 12.3992 10.4438 11.4702 11.0561 11.5778Z" fill="black"/>
<path d="M22.9089 7.33298C23.473 7.23582 23.9651 8.09874 24.0613 8.42282C24.2053 8.90867 23.8692 9.31948 23.1732 9.33037L23.185 9.34079C21.9847 9.36237 22.3808 7.41953 22.9089 7.33298Z" fill="black"/>
<path d="M17.0001 7.00876C17.5163 7.10597 17.9251 9.19013 16.7371 9.1585H16.724C16.0398 9.14754 15.7037 8.7043 15.8477 8.18584C15.9438 7.84019 16.4239 6.90129 17.0001 7.00876Z" fill="black"/>
</g>
<defs>
<linearGradient id="paint0_linear_12_95" x1="20" y1="0" x2="20" y2="50" gradientUnits="userSpaceOnUse">
<stop stop-color="#FDB8FF"/>
<stop offset="1" stop-color="#FC8DC4"/>
</linearGradient>
<clipPath id="clip0_12_95">
<rect width="40" height="50" fill="white"/>
</clipPath>
</defs>
</svg>
