<svg width="40" height="56" viewBox="0 0 40 56" fill="none" xmlns="http://www.w3.org/2000/svg">
<g clip-path="url(#clip0_3_118)">
<path d="M38.56 12.52C35.49 4.96 28.13 0.68 20.12 0.02C17.41 -0.12 14.7 0.36 12.22 1.45C1.46 5.95 -3.37 20.31 2.56 30.61H2.67C6.1 36.85 9.27 41.57 11.52 44.72C11.52 44.72 12.71 46.38 20.02 55.99C22.02 53.68 24.86 50.3 28.05 46.04C34.3 37.69 37.46 33.39 38.89 27.65C39.74 24.23 41.04 18.62 38.56 12.52Z" fill="#FEC34E" fill-opacity="0.81"/>
<path d="M20.49 5.19C18.3687 5.19 16.3232 5.41094 14.37 6.32C12.59 7.13 11.04 8.26 9.74 9.69C7.12 12.68 5.62 16.54 5.55 20.55C5.4 24.46 6.96 28.16 9.83 30.76C12.62 33.42 16.24 34.86 20.04 34.86H20.49H20.53H20.57H20.78C22.72 34.86 24.63 34.53 26.45 33.88C28.21 33.23 29.85 32.18 31.19 30.84L31.21 30.82L31.23 30.8C32.62 29.49 33.71 27.93 34.46 26.16C35.15 24.2 35.51 22.15 35.53 20.07C35.61 16.05 33.98 12.22 31.05 9.52C27.8634 6.81191 24.6838 5.19 20.49 5.19ZM13.52 4.52C15.387 3.65141 17.4334 3.21143 19.49 3.21C24.1813 3.21 28.8272 4.99656 32.39 8.03C35.76 11.12 37.64 15.52 37.54 20.09C37.52 22.41 37.11 24.71 36.33 26.89C35.47 28.92 34.2 30.75 32.6 32.26C31.05 33.81 29.18 35.01 27.12 35.77C25.08 36.5 22.94 36.87 20.78 36.87H20.54H20.03C15.74 36.87 11.6 35.23 8.48 32.26C5.18 29.28 3.37 24.98 3.55 20.53C3.63 16.04 5.3 11.73 8.26 8.36C9.73 6.74 11.52 5.43 13.52 4.52Z" fill="black"/>
<path d="M18.13 10.88C17.29 10.28 16.13 10.47 15.53 11.31C15.48 11.38 15.43 11.46 15.39 11.54C14.61 12.98 14.38 14.66 14.73 16.25C15.06 18.11 15.39 18.99 18.02 18.33C19.01 18.11 19.55 17.56 19.66 16.03C19.83 14.18 19.28 12.33 18.13 10.88Z" fill="black"/>
<path d="M29.2 15.81C29.86 15.81 30.08 15.37 29.97 14.82C29.86 14.27 29.42 13.61 28.87 13.72C28.32 13.83 27.99 15.8 29.2 15.8V15.81Z" fill="black"/>
<path d="M27.99 30.29C27.77 32.37 26.46 33.58 24.04 32.7C21.63 31.82 20.64 30.29 18.67 31.38C17.69 32.28 16.38 32.75 15.05 32.7C11.32 32.59 10.66 27.99 14.94 25.24C16.26 24.36 16.37 22.83 17.02 21.73C18.27 19.8 20.85 19.24 22.78 20.49C22.8 20.5 22.81 20.51 22.83 20.52C24.26 21.4 24.04 22.93 24.69 24.14C25.34 25.35 28.31 26.88 27.98 30.28L27.99 30.29Z" fill="black"/>
<path d="M8.7 19.65C8.81 17.9 9.58 15.92 10.89 15.37C12.2 14.82 13.41 16.9 13.63 19.43C13.85 21.96 10.78 23.6 9.79 22.83C8.95 22 8.55 20.82 8.69 19.65H8.7Z" fill="black"/>
<path d="M25.14 11.87C24.37 10.66 21.96 10.01 21.63 12.31C20.97 16.26 20.64 18.12 23.49 18.34C26.34 18.56 26.78 14.39 25.13 11.87H25.14Z" fill="black"/>
<path d="M30.52 23.82C29.32 24.47 27.83 24.15 27.01 23.05C26.24 21.84 26.68 20.53 27.67 17.57C28 16.47 29.64 16.69 30.52 17.9C31.4 19.11 32.49 22.61 30.52 23.82Z" fill="black"/>
<path d="M23.28 9.78C23.7 9.86 24.1 9.59 24.18 9.17C24.2 9.04 24.2 8.91 24.16 8.79C24.05 8.46 23.61 7.58 23.06 7.58C22.51 7.58 22.18 9.77 23.28 9.77V9.78Z" fill="black"/>
<path d="M17.14 9.56C16.37 9.56 16.15 9.12 16.26 8.57C16.37 8.02 16.81 7.14 17.36 7.25C17.91 7.36 18.24 9.66 17.14 9.55V9.56Z" fill="black"/>
<path d="M11.33 14.5C10.85 14.52 10.44 14.14 10.43 13.65C10.43 13.57 10.43 13.48 10.46 13.4C10.57 13.07 11.01 12.08 11.67 12.19C12.33 12.3 12.55 14.49 11.34 14.49L11.33 14.5Z" fill="black"/>
</g>
<defs>
<clipPath id="clip0_3_118">
<rect width="40" height="56" fill="white"/>
</clipPath>
</defs>
</svg>
