<svg width="40" height="50" viewBox="0 0 40 50" fill="none" xmlns="http://www.w3.org/2000/svg">
<g clip-path="url(#clip0_10_82)">
<path d="M20 1C25.0312 1 29.448 2.75352 33.291 6.29785C37.0763 9.78903 39 14.4855 39 20.5C39 24.3994 37.4486 28.7364 34.2031 33.5332C31.0658 38.1701 26.3414 43.2181 20 48.6797C13.6586 43.2181 8.93418 38.1701 5.79688 33.5332C2.5514 28.7364 1 24.3994 1 20.5C1 14.4855 2.92375 9.78903 6.70898 6.29785C10.552 2.75352 14.9688 1 20 1Z" fill="url(#paint0_linear_10_82)" stroke="black" stroke-width="2"/>
<g clip-path="url(#clip1_10_82)">
<path d="M24.2217 34.0342C24.4726 33.847 24.8273 34.1858 24.6055 34.4131C23.5109 35.5366 21.5599 35.9258 20 35.9258C18.4401 35.9276 16.4891 35.5384 15.3945 34.4131C15.1727 34.1858 15.5274 33.847 15.7783 34.0342C16.882 34.8578 18.8491 35.1494 20 35.1494C21.1509 35.1494 23.118 34.8578 24.2217 34.0342ZM19.998 23.8545C21.5944 22.2599 24.1543 22.8168 24.1543 24.375C24.1539 26.6961 20.7685 27.1745 20.5186 28.0088C20.2604 28.8724 20.3887 30.0859 20.3887 30.0859C20.3905 30.7605 24.2222 31.7584 24.6748 32.4219C24.762 32.5513 24.8048 33.2002 24.4141 33.2002C24.023 33.1994 23.2912 32.2414 19.998 31.6416C16.7024 32.2433 15.9712 33.1998 15.582 33.2002C15.1929 33.2002 15.235 32.551 15.3223 32.4219C15.7754 31.7566 19.6056 30.7586 19.6074 30.0859C19.6074 30.0859 19.7367 28.8724 19.4785 28.0088C19.229 27.1744 15.8422 26.6963 15.8418 24.375C15.8418 22.8168 18.4017 22.2601 19.998 23.8545ZM25.4541 13.7324C26.525 12.6452 29.5946 12.4834 30.9092 13.7324C31.4328 13.8724 31.6909 13.9366 32.0781 14.1221C32.8579 14.4947 32.2747 14.9075 31.9492 14.9004C31.6965 14.8949 31.3002 14.5113 30.9111 14.9004C30.5221 15.2895 30.4385 16.1277 29.7422 16.8477C28.5913 18.0349 26.8871 17.9505 26.2344 17.625C25.4549 17.2364 25.4541 18.0142 25.4541 18.4033C25.4541 19.1451 25.8237 20.2507 27.0127 22.2979C27.6654 23.4215 28.5713 23.4658 28.5713 25.4131C28.5715 26.7363 29.7402 26.5819 29.7402 27.749L29.7422 27.751C29.7421 29.6292 26.8635 32.8125 26.2344 32.8125C25.8436 32.8125 25.2513 32.6854 25.4541 32.4238C28.1814 28.9202 27.4014 28.8436 27.4014 26.9727C27.4014 25.8036 28.1796 24.6367 26.2324 22.6895C25.4542 21.9113 23.5058 20.3529 24.6748 18.0166C25.2003 16.9675 23.9069 15.3015 25.4541 13.7324ZM9.09082 13.7305C10.4055 12.4816 13.475 12.6432 14.5459 13.7305C16.0932 15.2995 14.7998 16.9656 15.3252 18.0146C16.4943 20.351 14.5476 21.9093 13.7676 22.6875C11.8186 24.6347 12.5985 25.8035 12.5986 26.9707L12.5996 26.9688C12.5996 28.8396 11.8198 28.9165 14.5469 32.4199C14.7486 32.6799 14.1567 32.8095 13.7676 32.8096C13.1367 32.8096 10.2598 29.6253 10.2598 27.7471C10.2599 26.5783 11.4286 26.7344 11.4287 25.4111C11.4287 23.4639 12.3346 23.4195 12.9873 22.2959C14.1762 20.2489 14.5459 19.1413 14.5459 18.4014C14.5459 18.0121 14.5453 17.2351 13.7656 17.624C13.1129 17.9513 11.4069 18.0348 10.2578 16.8457C9.56151 16.1257 9.47793 15.2875 9.08887 14.8984C8.69978 14.5093 8.30351 14.893 8.05078 14.8984C7.72712 14.9074 7.14198 14.4928 7.92188 14.1201C8.30915 13.9347 8.569 13.8705 9.09082 13.7305ZM5.3916 26.5361C5.74572 26.2143 6.38363 26.152 6.93262 26.2148L6.93066 26.2168C7.80703 26.315 8.69964 26.5841 8.31055 27.3623C7.97821 28.0261 7.00719 28.2854 6.16699 28.0439C5.8832 27.557 5.62368 27.054 5.3916 26.5361ZM33.0674 26.2129C33.6162 26.1517 34.2555 26.2127 34.6084 26.5342C34.3768 27.0511 34.118 27.553 33.835 28.0391C32.9938 28.2811 32.0202 28.0234 31.6875 27.3584C31.2984 26.5802 32.1928 26.3129 33.0674 26.2129ZM7.80762 24.2637C8.0275 24.2021 8.34162 24.3091 8.59961 24.458C8.99039 24.6834 9.26717 25.1743 9.13477 25.5088C9.05115 25.7142 8.82925 25.8014 8.58203 25.7578C7.92385 25.6433 7.09307 24.4655 7.80762 24.2637ZM31.4004 24.458C31.6602 24.3091 31.9743 24.2021 32.1924 24.2637C32.9069 24.4637 32.0762 25.6433 31.418 25.7578C31.1689 25.8014 30.947 25.7142 30.8652 25.5088C30.7328 25.1743 31.0096 24.6834 31.4004 24.458ZM33.0586 24.1289C33.1623 23.4835 33.7639 22.8344 34.3584 23.1689C34.7583 23.3962 35.0122 23.9633 34.7051 24.3887C34.4451 24.7504 33.8913 25.1524 33.4531 24.9873C33.2368 24.9055 33.0873 24.7091 33.0527 24.46C33.0382 24.3527 33.0414 24.2416 33.0596 24.1289H33.0586ZM5.6377 23.167C6.23216 22.8325 6.83472 23.4816 6.93848 24.127C6.95665 24.2396 6.95983 24.3508 6.94531 24.458C6.91261 24.7069 6.76204 24.9034 6.5459 24.9854H6.54395C6.1059 25.1508 5.55293 24.7494 5.29102 24.3877C4.98381 23.9623 5.23784 23.3925 5.6377 23.167ZM8.23828 21.5215C8.77097 21.5579 9.17953 22.0204 9.07227 22.5186C8.98846 22.9128 8.63268 23.2143 8.21289 23.0127H8.21094C7.83835 22.8328 7.4801 22.5257 7.53613 22.0986C7.57977 21.7623 7.86737 21.496 8.23828 21.5215ZM31.7598 21.5215C32.1307 21.496 32.4183 21.7623 32.4619 22.0986C32.518 22.5257 32.1597 22.8328 31.7871 23.0127H31.7852C31.3654 23.2142 31.0114 22.9128 30.9258 22.5186C30.8203 22.0223 31.2271 21.558 31.7598 21.5215ZM6.57617 17.625C6.78697 17.6414 6.93461 17.7452 7.02734 17.8633C7.24734 18.1433 7.13587 18.5743 6.86133 18.8779C6.30514 19.4922 6.06926 19.3584 5.71484 19.6182C5.39306 19.8545 5.56734 20.4399 5.13477 21.3652C5.02023 21.607 4.78735 21.8475 4.51465 21.8984L4.5166 21.9004C4.36598 21.928 4.22656 21.892 4.10352 21.8203C4.03585 21.2229 4 20.6155 4 20C4 19.9018 4.00117 19.8038 4.00293 19.7061C4.14476 19.4754 4.33309 19.2554 4.57812 19.0723C4.83077 18.8835 5.19842 19.0982 5.32031 18.8877C5.50394 18.5677 5.39095 17.5379 6.57617 17.625ZM33.4258 17.624C34.6109 17.5369 34.498 18.5658 34.6816 18.8857C34.8035 19.0964 35.1712 18.8822 35.4238 19.0713C35.6677 19.2537 35.8545 19.4726 35.9961 19.7021C35.9979 19.8012 36 19.9005 36 20C36 20.6156 35.9632 21.2228 35.8955 21.8203C35.7731 21.8911 35.6349 21.9266 35.4854 21.8984C35.2126 21.8475 34.978 21.607 34.8652 21.3652C34.4327 20.4418 34.6051 19.8545 34.2852 19.6182C33.9307 19.3584 33.694 19.4942 33.1377 18.8779L33.1396 18.876C32.8654 18.5742 32.7547 18.1412 32.9746 17.8613C33.0692 17.7433 33.2151 17.6404 33.4258 17.624ZM5.85449 16.8291C5.08003 16.5818 6.35859 14.6983 6.95312 15.0146C7.57964 15.3496 6.50346 17.0363 5.85449 16.8291ZM33.0469 15.0146C33.6414 14.6965 34.92 16.58 34.1455 16.8291C33.4965 17.0382 32.4204 15.3496 33.0469 15.0146ZM11.8184 14.9004C11.8184 14.5113 11.4072 14.3871 11.0381 14.5107C9.86905 14.8999 11.0385 16.8457 12.5967 16.8457C12.9039 16.8457 13.2183 16.7887 13.5127 16.627C14.7325 15.9542 13.5869 14.9563 13.376 15.2891C13.0434 15.8161 12.6238 16.0689 12.1113 15.7021C11.8033 15.4819 11.8178 14.9173 11.8184 14.9004ZM28.9619 14.5107C28.591 14.3871 28.1816 14.5113 28.1816 14.9004C28.1822 14.9173 28.1967 15.4819 27.8887 15.7021C27.3762 16.0689 26.9566 15.8161 26.624 15.2891C26.4149 14.9563 25.2675 15.9542 26.4873 16.627C26.7817 16.7887 27.0961 16.8457 27.4033 16.8457C28.9615 16.8475 30.1309 14.8999 28.9619 14.5107ZM20 4.13281C20.2435 4.13281 20.4867 4.29263 20.5596 4.6123C20.9196 6.2014 20.8381 9.45137 20.3145 14.2041C20.2906 14.4092 20.1453 14.5107 20 14.5107C19.8547 14.5107 19.7075 14.4092 19.6855 14.2041C19.1619 9.45137 19.0804 6.2014 19.4404 4.6123C19.5133 4.29263 19.7565 4.13281 20 4.13281ZM14.5459 12.1748C13.3768 12.1748 14.5599 7.33118 16.1035 8.28027C17.196 8.95292 15.3262 12.1736 14.5459 12.1748ZM23.8965 8.28027C25.4401 7.33118 26.6232 12.1748 25.4541 12.1748C24.6757 12.1736 22.804 8.9511 23.8965 8.28027ZM13.5635 7.76953C12.9071 7.21317 14.1525 6.02925 14.4961 6.93652C14.7378 7.57099 14.0126 8.15112 13.5635 7.76953ZM22.3926 6.0127C22.4926 5.6309 22.7288 5.41127 23.1143 5.66211C23.4815 5.89847 23.9471 6.60934 23.7871 7.3457C23.6652 7.90727 23.1761 7.97806 22.8652 7.81445C22.4108 7.57608 22.2381 6.6017 22.3926 6.0127ZM16.8857 5.66211C17.2712 5.41127 17.5074 5.6309 17.6074 6.0127C17.7619 6.6017 17.5892 7.57608 17.1348 7.81445C16.8239 7.97625 16.3348 7.90727 16.2129 7.3457C16.0547 6.60934 16.5203 5.90029 16.8857 5.66211ZM25.5039 6.93652C25.8475 6.02925 27.0911 7.21317 26.4365 7.76953C25.9874 8.14931 25.264 7.57099 25.5039 6.93652ZM15.8848 4.53516C15.9535 4.59889 16.0137 4.68413 16.0596 4.7959C16.3632 5.53948 14.993 6.44893 14.6074 5.60742C14.4989 5.36986 14.5436 5.12125 14.6689 4.91016C15.0672 4.76946 15.4728 4.64451 15.8848 4.53516ZM24.1143 4.53516C24.527 4.64467 24.9331 4.77016 25.332 4.91113C25.4567 5.12198 25.5014 5.36985 25.3926 5.60742C25.007 6.44893 23.635 5.53948 23.9404 4.7959C23.9861 4.68445 24.0457 4.59888 24.1143 4.53516Z" fill="black"/>
</g>
<path d="M20 5C28.2843 5 35 11.7157 35 20C35 28.2843 28.2843 35 20 35C11.7157 35 5 28.2843 5 20C5 11.7157 11.7157 5 20 5Z" stroke="black" stroke-width="2"/>
</g>
<defs>
<linearGradient id="paint0_linear_10_82" x1="20" y1="0" x2="20" y2="50" gradientUnits="userSpaceOnUse">
<stop stop-color="#FFC44E"/>
<stop offset="1" stop-color="#FF9933"/>
</linearGradient>
<clipPath id="clip0_10_82">
<rect width="40" height="50" fill="white"/>
</clipPath>
<clipPath id="clip1_10_82">
<path d="M4 20C4 11.1634 11.1634 4 20 4V4C28.8366 4 36 11.1634 36 20V20C36 28.8366 28.8366 36 20 36V36C11.1634 36 4 28.8366 4 20V20Z" fill="white"/>
</clipPath>
</defs>
</svg>
