<svg width="40" height="50" viewBox="0 0 40 50" fill="none" xmlns="http://www.w3.org/2000/svg">
<g clip-path="url(#clip0_21_71)">
<path d="M20 1C25.0312 1 29.448 2.75352 33.291 6.29785C37.0763 9.78903 39 14.4855 39 20.5C39 24.3994 37.4486 28.7364 34.2031 33.5332C31.0658 38.1701 26.3414 43.2181 20 48.6797C13.6586 43.2181 8.93418 38.1701 5.79688 33.5332C2.5514 28.7364 1 24.3994 1 20.5C1 14.4855 2.92375 9.78903 6.70898 6.29785C10.552 2.75352 14.9688 1 20 1Z" fill="url(#paint0_linear_21_71)" stroke="black" stroke-width="2"/>
<path d="M20 5C28.2843 5 35 11.7157 35 20C35 28.2843 28.2843 35 20 35C11.7157 35 5 28.2843 5 20C5 11.7157 11.7157 5 20 5Z" stroke="black" stroke-width="2"/>
<path d="M15.0306 26.4274C17.4766 25.2583 21.3793 24.0747 21.5052 27.0045C23.01 27.1603 22.54 30.0548 21.6673 31.2184C21.0617 32.0255 19.6269 32.0504 19.221 31.2477C19.0471 30.9037 19.1823 30.2777 19.1849 30.2662C17.944 31.0742 16.5236 30.7712 15.93 30.0065C15.4803 29.4148 15.5518 28.029 16.469 27.5094C16.4584 27.5106 15.8003 27.5817 15.3899 27.5817C14.2569 27.5528 14.2392 26.8026 15.0306 26.4274ZM28.2552 24.6256C29.5388 24.195 29.7552 25.502 29.1722 26.3502C30.1642 25.8239 32.7158 25.8167 32.4231 27.1618C32.0838 28.7213 29.1722 30.721 27.6468 30.2741L27.6507 30.2614C26.6866 30.2414 26.2017 28.2081 27.3069 26.9791C26.4467 27.0501 25.9371 26.1086 26.6966 25.4928C26.947 25.2898 27.8893 24.7451 28.2552 24.6256ZM8.55009 23.4596C9.00397 22.3497 10.2284 21.6162 11.1829 22.3092L11.1917 22.2926C13.3316 23.8514 12.8938 25.1255 12.303 25.9303C12.98 26.8779 12.6895 27.9297 11.3167 28.0084C10.7902 28.0403 9.47001 27.236 9.47001 27.236C9.47001 27.236 9.6864 28.32 8.41435 28.6032C7.64194 28.7791 5.74759 27.4726 7.05399 25.776C6.70461 25.391 6.21876 24.7428 6.01103 24.2789C5.69771 23.5979 7.05868 22.2923 8.55009 23.4596ZM21.4319 22.7575C16.4584 24.6894 18.8688 16.6893 23.3499 18.4957C27.2893 20.0878 24.677 27.7834 21.4319 22.7575ZM28.7337 18.7389C23.0167 10.4918 39.4837 13.6746 32.1946 19.2467C32.4646 22.8209 27.0099 22.4469 28.7337 18.7389ZM13.6927 16.6901C13.1184 15.4407 15.3498 15.1776 15.8616 15.8405C17.3333 17.7413 17.2584 21.0444 14.4817 21.2789C12.7788 21.4245 10.6666 20.6669 9.33329 19.2916C8.63063 17.7737 12.0784 17.8496 12.1067 17.8502C11.6932 17.2788 12.1569 16.1568 13.6927 16.6901ZM23.8606 9.6139C26.7218 9.06013 28.5775 11.7862 24.7845 16.5934C23.7762 17.8626 22.1267 16.2306 22.6829 14.7008C21.2426 15.3556 19.2379 14.383 20.2503 12.1989C21.0447 10.4889 22.5483 9.89025 23.8431 9.63343L23.8606 9.6139ZM10.9319 8.76527C11.9499 7.92399 14.2642 7.66729 15.2591 8.55531C17.6877 10.7286 13.5925 14.3268 10.9319 14.6539C9.38195 14.8406 8.41058 12.8783 10.6546 11.4996C10.1687 10.7986 10.0529 9.48972 10.9319 8.76527ZM18.4661 6.58265C17.3617 5.54062 20.4574 4.45656 22.6663 5.99964C23.0554 6.27489 23.3332 7.5064 22.0003 7.33363C22.9165 9.217 20.6662 10.0002 18.6663 9.33363C16.6666 8.66694 16.7194 6.68189 18.4661 6.58265Z" fill="black"/>
</g>
<defs>
<linearGradient id="paint0_linear_21_71" x1="20" y1="0" x2="20" y2="50" gradientUnits="userSpaceOnUse">
<stop stop-color="#5DE9A6"/>
<stop offset="1" stop-color="#13C99B"/>
</linearGradient>
<clipPath id="clip0_21_71">
<rect width="40" height="50" fill="white"/>
</clipPath>
</defs>
</svg>
