<svg width="30" height="24" viewBox="0 0 30 24" fill="none" xmlns="http://www.w3.org/2000/svg">
<g clip-path="url(#clip0_24_16)">
<g opacity="0.5">
<path d="M12.6 0L8 8C10.2 8 12.0833 8.78333 13.65 10.35C15.2167 11.9167 16 13.8 16 16C16 18.2 15.2167 20.0833 13.65 21.65C12.0833 23.2167 10.2 24 8 24C5.8 24 3.91667 23.2167 2.35 21.65C0.783334 20.0833 9.53674e-07 18.2 9.53674e-07 16C9.53674e-07 15.2333 0.0916653 14.525 0.274999 13.875C0.458332 13.225 0.733332 12.6 1.1 12L8 0H12.6Z" fill="#FFA239"/>
</g>
<g opacity="0.8">
<path d="M26.6 0L22 8C24.2 8 26.0833 8.78333 27.65 10.35C29.2167 11.9167 30 13.8 30 16C30 18.2 29.2167 20.0833 27.65 21.65C26.0833 23.2167 24.2 24 22 24C19.8 24 17.9167 23.2167 16.35 21.65C14.7833 20.0833 14 18.2 14 16C14 15.2333 14.0917 14.525 14.275 13.875C14.4583 13.225 14.7333 12.6 15.1 12L22 0H26.6Z" fill="#FFA239"/>
</g>
</g>
<defs>
<clipPath id="clip0_24_16">
<rect width="30" height="24" fill="white"/>
</clipPath>
</defs>
</svg>
